<svg width="16" height="15" viewBox="0 0 16 15" fill="none" xmlns="http://www.w3.org/2000/svg">
<path fill-rule="evenodd" clip-rule="evenodd" d="M1 3.13763V12.9991C1 13.2606 1.10536 13.5115 1.29289 13.6964C1.48043 13.8813 1.73478 13.9852 2 13.9852H14C14.2652 13.9852 14.5196 13.8813 14.7071 13.6964C14.8946 13.5115 15 13.2606 15 12.9991V3.13763H1ZM2 0.179199C1.46957 0.179199 0.960859 0.386993 0.585786 0.75687C0.210714 1.12675 0 1.62841 0 2.15149L0 12.9991C0 13.5222 0.210714 14.0238 0.585786 14.3937C0.960859 14.7636 1.46957 14.9714 2 14.9714H14C14.5304 14.9714 15.0391 14.7636 15.4142 14.3937C15.7893 14.0238 16 13.5222 16 12.9991V2.15149C16 1.62841 15.7893 1.12675 15.4142 0.75687C15.0391 0.386993 14.5304 0.179199 14 0.179199H2Z" fill="#2E3030"/>
</svg>
